HIERARCHY
ROOT Hips
{
 OFFSET 0.000000 0.000000 0.000000
 CHANNELS 6 Xposition Yposition Zposition Yrotation Xrotation Zrotation
 JOINT Chest
 {
  OFFSET 0.000000 9.588913 -0.003946
  CHANNELS 3 Yrotation Xrotation Zrotation
  JOINT Chest2
  {
   OFFSET 0.000000 9.541882 0.008053
   CHANNELS 3 Yrotation Xrotation Zrotation
   JOINT Chest3
   {
    OFFSET 0.000000 9.501360 0.000000
    CHANNELS 3 Yrotation Xrotation Zrotation
    JOINT Chest4
    {
     OFFSET 0.000000 9.491660 0.000000
     CHANNELS 3 Yrotation Xrotation Zrotation
     JOINT Neck
     {
      OFFSET 0.000000 14.331917 0.000000
      CHANNELS 3 Yrotation Xrotation Zrotation
      JOINT Head
      {
       OFFSET 0.000000 8.884799 0.017034
       CHANNELS 3 Yrotation Xrotation Zrotation
       End Site
       {
        OFFSET 0.000000 16.896195 0.008993
       }
      }
     }
     JOINT RightCollar
     {
      OFFSET -2.923010 9.499495 0.000000
      CHANNELS 3 Yrotation Xrotation Zrotation
      JOINT RightShoulder
      {
       OFFSET -13.795216 0.000000 0.000000
       CHANNELS 3 Yrotation Xrotation Zrotation
       JOINT RightElbow
       {
        OFFSET -30.272209 0.000000 0.000000
        CHANNELS 3 Yrotation Xrotation Zrotation
        JOINT RightWrist
        {
         OFFSET -24.478199 0.000000 0.000000
         CHANNELS 3 Yrotation Xrotation Zrotation
         End Site
         {
          OFFSET -18.090752 0.000000 0.000000
         }
        }
       }
      }
     }
     JOINT LeftCollar
     {
      OFFSET 2.923010 9.499495 0.000000
      CHANNELS 3 Yrotation Xrotation Zrotation
      JOINT LeftShoulder
      {
       OFFSET 13.795216 0.000000 0.000000
       CHANNELS 3 Yrotation Xrotation Zrotation
       JOINT LeftElbow
       {
        OFFSET 30.272209 0.000000 0.000000
        CHANNELS 3 Yrotation Xrotation Zrotation
        JOINT LeftWrist
        {
         OFFSET 24.478199 0.000000 0.000000
         CHANNELS 3 Yrotation Xrotation Zrotation
         End Site
         {
          OFFSET 18.090752 0.000000 0.000000
         }
        }
       }
      }
     }
    }
   }
  }
 }
 JOINT RightHip
 {
  OFFSET -7.826875 0.019532 0.001973
  CHANNELS 3 Yrotation Xrotation Zrotation
  JOINT RightKnee
  {
   OFFSET 0.000000 -40.546152 -0.001885
   CHANNELS 3 Yrotation Xrotation Zrotation
   JOINT RightAnkle
   {
    OFFSET 0.000000 -39.417092 -0.003189
    CHANNELS 3 Yrotation Xrotation Zrotation
    JOINT RightToe
    {
     OFFSET 0.000000 -7.579396 17.243563
     CHANNELS 3 Yrotation Xrotation Zrotation
     End Site
     {
      OFFSET 0.000000 -1.500329 6.694466
     }
    }
   }
  }
 }
 JOINT LeftHip
 {
  OFFSET 7.826875 0.019532 0.001973
  CHANNELS 3 Yrotation Xrotation Zrotation
  JOINT LeftKnee
  {
   OFFSET 0.000000 -40.546152 -0.001885
   CHANNELS 3 Yrotation Xrotation Zrotation
   JOINT LeftAnkle
   {
    OFFSET 0.000000 -39.417092 -0.003189
    CHANNELS 3 Yrotation Xrotation Zrotation
    JOINT LeftToe
    {
     OFFSET 0.000000 -7.579396 17.243563
     CHANNELS 3 Yrotation Xrotation Zrotation
     End Site
     {
      OFFSET 0.000000 -1.500329 6.694466
     }
    }
   }
  }
 }
}
MOTION
Frames: 15
Frame Time: 0.008333
-22.515882 87.827298 -3.482172 -143.340440 -8.638919 -0.339175 4.641558 2.573243 -0.241901 2.623845 1.459006 -0.080520 3.279751 1.824214 -0.090207 2.623845 1.459006 -0.080520 -6.218518 28.783524 4.271493 -7.951072 6.733132 6.204464 -3.838114 4.437040 -3.171420 -8.427804 1.183889 89.600650 8.219757 -4.586331 3.113652 -18.297780 2.780167 21.163763 -3.295943 2.876361 -0.276126 3.502433 -1.715041 -86.613975 0.497393 -2.968518 -0.012655 -2.750764 3.711656 2.038455 -7.717079 14.019193 -11.085056 0.367127 2.584894 -0.817930 1.501355 -7.864055 7.661241 0.003423 -0.150905 -0.007060 21.296496 14.253710 12.215922 12.436084 -2.097531 -0.318368 1.190942 -2.855416 -10.072551 0.059021 0.242766 0.031187
-22.503082 87.828204 -3.473369 -143.319129 -8.644715 -0.336487 4.639112 2.582613 -0.244523 2.622785 1.463811 -0.082318 3.278420 1.830233 -0.092424 2.622785 1.463811 -0.082318 -6.218566 28.741234 4.246111 -7.944001 6.674962 6.175165 -3.825115 4.424429 -3.158829 -8.410937 1.104105 89.585242 8.152634 -4.534802 3.080982 -18.182249 2.743431 21.097734 -3.317798 2.873633 -0.290972 3.501705 -1.749146 -86.610586 0.479370 -2.966911 -0.028595 -2.758186 3.699021 2.045982 -7.737068 14.030234 -11.089432 0.368186 2.557731 -0.815442 1.498651 -7.849455 7.658080 0.002980 -0.151208 -0.005929 21.281270 14.248642 12.214309 12.435873 -2.099834 -0.320723 1.182121 -2.847990 -10.069560 0.059720 0.246173 0.031428
-22.489678 87.829143 -3.465015 -143.296205 -8.652409 -0.335380 4.638691 2.592575 -0.245632 2.622805 1.469058 -0.083351 3.278441 1.836799 -0.093679 2.622805 1.469058 -0.083351 -6.222030 28.692250 4.216764 -7.939732 6.608026 6.142129 -3.813314 4.411596 -3.144643 -8.403552 1.021883 89.572385 8.076817 -4.490419 3.045574 -18.040830 2.696981 21.019207 -3.346323 2.870351 -0.307612 3.494348 -1.781214 -86.608399 0.469782 -2.962448 -0.040578 -2.762623 3.693354 2.048497 -7.758194 14.041066 -11.091670 0.368482 2.535461 -0.814553 1.499196 -7.837019 7.654584 0.003083 -0.151903 -0.004612 21.265546 14.242336 12.216365 12.438755 -2.097571 -0.324410 1.169968 -2.843149 -10.066594 0.060932 0.249770 0.031845
-22.475363 87.830114 -3.456983 -143.272669 -8.660148 -0.335700 4.637013 2.602776 -0.245722 2.622096 1.474381 -0.083580 3.277556 1.843453 -0.093929 2.622096 1.474381 -0.083580 -6.223584 28.637603 4.181236 -7.931632 6.532917 6.101569 -3.798197 4.395520 -3.128829 -8.397927 0.936815 89.559721 7.985884 -4.447488 3.007282 -17.866708 2.641330 20.928432 -3.368211 2.865609 -0.326823 3.474457 -1.812374 -86.605810 0.467363 -2.962667 -0.050960 -2.760073 3.693465 2.046902 -7.776248 14.050064 -11.090157 0.364244 2.518382 -0.815184 1.500803 -7.826858 7.652008 0.003692 -0.152481 -0.004327 21.249354 14.232781 12.220534 12.440407 -2.090568 -0.328142 1.159807 -2.840518 -10.062226 0.062509 0.253616 0.030996
-22.460140 87.831093 -3.448854 -143.247899 -8.665611 -0.335693 4.632528 2.612841 -0.245966 2.619770 1.479466 -0.083802 3.274648 1.849810 -0.094179 2.619770 1.479466 -0.083802 -6.220599 28.577265 4.139031 -7.916565 6.449298 6.052295 -3.777617 4.375664 -3.112178 -8.387109 0.847523 89.548837 7.877677 -4.410948 2.965389 -17.656851 2.578057 20.823209 -3.379183 2.859187 -0.347432 3.442268 -1.844992 -86.603353 0.472207 -2.965552 -0.060121 -2.750033 3.697910 2.044367 -7.790612 14.054497 -11.085763 0.356719 2.507323 -0.817576 1.499701 -7.819933 7.649549 0.004451 -0.152272 -0.004051 21.230815 14.218030 12.223407 12.436853 -2.078436 -0.330396 1.154489 -2.839792 -10.056722 0.064181 0.257357 0.028897
-22.443979 87.832080 -3.440438 -143.220219 -8.667326 -0.335440 4.625559 2.621708 -0.246629 2.615822 1.483936 -0.084266 3.269711 1.855400 -0.094744 2.615822 1.483936 -0.084266 -6.213463 28.511144 4.090117 -7.894970 6.357130 5.994379 -3.752159 4.355535 -3.096638 -8.365152 0.751561 89.543750 7.752274 -4.389427 2.920343 -17.412100 2.506239 20.701089 -3.385617 2.853003 -0.368706 3.407033 -1.878261 -86.602940 0.483556 -2.962276 -0.064146 -2.735580 3.705196 2.039508 -7.804843 14.053546 -11.079919 0.353319 2.500279 -0.820587 1.493308 -7.815263 7.645092 0.005048 -0.151691 -0.002354 21.209821 14.197765 12.224777 12.426998 -2.064133 -0.332073 1.153756 -2.839325 -10.051399 0.065747 0.261050 0.027287
-22.427201 87.833164 -3.431985 -143.192422 -8.667232 -0.334843 4.617883 2.629553 -0.246465 2.611231 1.488035 -0.084399 3.263972 1.860523 -0.094899 2.611231 1.488035 -0.084399 -6.203786 28.439342 4.032997 -7.868328 6.256634 5.926531 -3.728356 4.337757 -3.083995 -8.324025 0.649174 89.546688 7.609297 -4.383575 2.871143 -17.133151 2.424531 20.560128 -3.391786 2.849261 -0.392574 3.370977 -1.911439 -86.604731 0.500115 -2.949052 -0.062291 -2.717006 3.713021 2.029943 -7.817674 14.049229 -11.074132 0.353343 2.496391 -0.822365 1.484300 -7.812040 7.638660 0.005796 -0.151051 -0.000164 21.190952 14.175507 12.225106 12.414382 -2.051342 -0.332248 1.154237 -2.836661 -10.048379 0.067135 0.264081 0.027235
-22.410166 87.834450 -3.423781 -143.168466 -8.667681 -0.333885 4.611326 2.637790 -0.244476 2.607190 1.492547 -0.083617 3.258924 1.866158 -0.093906 2.607190 1.492547 -0.083617 -6.192364 28.361068 3.967108 -7.837403 6.146865 5.848318 -3.708763 4.322028 -3.072448 -8.264281 0.538503 89.552082 7.450638 -4.385337 2.819819 -16.827522 2.330870 20.401720 -3.398314 2.847534 -0.420771 3.331534 -1.946958 -86.605804 0.522214 -2.927864 -0.058827 -2.695445 3.722132 2.016562 -7.824269 14.043850 -11.067888 0.352864 2.495861 -0.823661 1.475987 -7.809923 7.631877 0.006372 -0.150685 0.001541 21.176776 14.153704 12.225451 12.403774 -2.039048 -0.330443 1.151970 -2.832535 -10.047117 0.068091 0.265956 0.027434
-22.393092 87.836044 -3.416209 -143.149749 -8.671237 -0.333958 4.606139 2.648243 -0.240738 2.604025 1.498526 -0.081987 3.254974 1.873618 -0.091839 2.604025 1.498526 -0.081987 -6.178522 28.276439 3.894078 -7.801826 6.028108 5.761446 -3.686464 4.307305 -3.054576 -8.193443 0.407983 89.546665 7.271290 -4.384286 2.776768 -16.508559 2.224046 20.228785 -3.403588 2.845152 -0.449688 3.287421 -1.984829 -86.604787 0.548085 -2.900459 -0.056648 -2.674652 3.734121 2.001090 -7.824213 14.040776 -11.060582 0.352458 2.497114 -0.823987 1.469181 -7.807268 7.624912 0.006021 -0.151368 0.002510 21.167653 14.135832 12.228963 12.397874 -2.028545 -0.328936 1.146057 -2.826938 -10.045638 0.068763 0.266591 0.026989
-22.376366 87.838040 -3.409557 -143.136639 -8.680941 -0.335186 4.600414 2.662445 -0.236372 2.600881 1.506635 -0.079903 3.251054 1.883739 -0.089190 2.600881 1.506635 -0.079903 -6.160660 28.187104 3.814491 -7.759959 5.902470 5.666231 -3.653847 4.292099 -3.028531 -8.113818 0.255215 89.527572 7.071379 -4.370696 2.744467 -16.182363 2.105590 20.047656 -3.403014 2.839139 -0.476775 3.238754 -2.022388 -86.601933 0.575633 -2.865064 -0.055931 -2.656818 3.750187 1.988381 -7.821877 14.042775 -11.054156 0.351467 2.499394 -0.821951 1.466733 -7.803344 7.617941 0.005116 -0.153243 0.002130 21.165433 14.127203 12.236831 12.395864 -2.024818 -0.328334 1.137898 -2.816651 -10.044183 0.069447 0.265375 0.026563
-22.360030 87.840423 -3.403628 -143.127784 -8.696526 -0.337406 4.593641 2.678990 -0.231471 2.597305 1.515978 -0.077129 3.246597 1.895398 -0.085671 2.597305 1.515978 -0.077129 -6.140081 28.095314 3.726647 -7.712924 5.772940 5.561112 -3.610298 4.275323 -2.998292 -8.026565 0.091706 89.494079 6.861815 -4.342658 2.723254 -15.847964 1.983188 19.865236 -3.397724 2.830348 -0.504101 3.187843 -2.055397 -86.598562 0.602606 -2.819577 -0.054423 -2.640393 3.769715 1.983254 -7.821300 14.049060 -11.048608 0.349639 2.502786 -0.819444 1.469763 -7.798229 7.612281 0.004620 -0.156194 0.000465 21.167825 14.126570 12.247333 12.396892 -2.026062 -0.326777 1.129547 -2.802525 -10.042930 0.069941 0.262919 0.025849
-22.343665 87.843088 -3.398054 -143.124130 -8.715336 -0.341179 4.589742 2.695287 -0.225217 2.595395 1.525392 -0.073528 3.244225 1.907138 -0.081111 2.595395 1.525392 -0.073528 -6.121351 28.003186 3.629622 -7.665759 5.642729 5.446192 -3.565151 4.252050 -2.963506 -7.936266 -0.071435 89.440943 6.649513 -4.304665 2.718427 -15.508586 1.867470 19.685853 -3.395807 2.822941 -0.529354 3.137609 -2.082833 -86.598270 0.627301 -2.760450 -0.051980 -2.628421 3.787681 1.987106 -7.819149 14.056298 -11.041162 0.345686 2.508862 -0.817467 1.475369 -7.792384 7.607005 0.004660 -0.159718 -0.001293 21.172656 14.129010 12.259452 12.399390 -2.027232 -0.322314 1.122854 -2.788165 -10.042777 0.069750 0.260170 0.024591
-22.326940 87.845917 -3.392491 -143.126998 -8.734977 -0.346269 4.589996 2.710413 -0.218187 2.595817 1.534462 -0.069582 3.244771 1.918447 -0.076112 2.595817 1.534462 -0.069582 -6.104343 27.912481 3.522226 -7.618074 5.514059 5.320149 -3.522394 4.218193 -2.924071 -7.844868 -0.221914 89.377177 6.445012 -4.265733 2.722860 -15.169425 1.762578 19.514468 -3.399439 2.819518 -0.548886 3.086036 -2.109142 -86.600974 0.651775 -2.691648 -0.051494 -2.626464 3.799824 2.000054 -7.812467 14.063235 -11.030526 0.339861 2.515246 -0.816799 1.481106 -7.785032 7.601985 0.004686 -0.162985 -0.002735 21.180336 14.130478 12.273091 12.400949 -2.024403 -0.315261 1.118647 -2.776338 -10.044474 0.068863 0.257477 0.023342
-22.309747 87.848780 -3.386429 -143.132986 -8.752604 -0.351229 4.591291 2.724027 -0.210753 2.596615 1.542874 -0.065623 3.245787 1.928933 -0.071101 2.596615 1.542874 -0.065623 -6.085681 27.823966 3.400854 -7.565158 5.387337 5.178156 -3.470216 4.175802 -2.879520 -7.757387 -0.353008 89.305807 6.262053 -4.250979 2.730396 -14.844004 1.671976 19.364372 -3.403188 2.820700 -0.562664 3.023848 -2.137883 -86.603387 0.679952 -2.622538 -0.053748 -2.631964 3.806685 2.017143 -7.806772 14.068817 -11.018775 0.337789 2.517441 -0.818728 1.485508 -7.775257 7.597547 0.004654 -0.165433 -0.003274 21.184907 14.128048 12.285660 12.404956 -2.015357 -0.308743 1.117363 -2.768312 -10.045835 0.068121 0.255407 0.022349
-22.291971 87.851549 -3.379373 -143.140323 -8.764910 -0.354445 4.591884 2.736101 -0.202891 2.596939 1.550397 -0.061983 3.246209 1.938310 -0.066495 2.596939 1.550397 -0.061983 -6.063122 27.737133 3.261911 -7.503581 5.261467 5.015678 -3.394493 4.127249 -2.823555 -7.679114 -0.468394 89.209865 6.108667 -4.308654 2.751090 -14.559092 1.606986 19.252629 -3.404649 2.823241 -0.569707 2.943560 -2.167467 -86.603134 0.712476 -2.557032 -0.055861 -2.641158 3.809530 2.025004 -7.803926 14.068214 -11.007966 0.340926 2.517999 -0.822171 1.488204 -7.765283 7.591181 0.005069 -0.166393 -0.001476 21.184621 14.119764 12.293892 12.413114 -2.002084 -0.303848 1.117979 -2.762863 -10.045266 0.067700 0.253981 0.021321
